<?xml version="1.0" encoding="UTF-8"?>
<svg xmlns="http://www.w3.org/2000/svg"
     viewBox="15.0 69.3 770.0 461.4"
     aria-label="Adams County Places Map"
     role="img">
    <path class="county-boundary" d="M30.1,249.3L32.7,259.2L34.4,266.2L43.2,299.8L43.7,302.5L50.7,330.2L92.6,319.7L113.3,314.3L122.9,311.9L153.3,304.3L161.6,302.2L181.7,297.0L188.8,295.2L234.7,283.5L242.7,314.8L258.1,376.1L258.7,378.4L262.8,394.5L264.9,403.0L280.4,465.2L285.9,485.4L290.8,505.6L295.9,525.7L496.4,476.3L549.9,463.2L608.5,449.2L609.1,449.0L621.2,446.3L631.5,443.9L641.6,441.5L651.9,439.0L662.2,436.6L692.9,429.3L694.0,428.9L710.3,425.0L720.3,422.4L723.6,421.3L727.8,420.3L780.0,408.2L773.8,380.8L758.0,312.2L757.4,310.1L749.9,277.7L748.1,269.6L740.7,239.2L726.9,179.7L726.6,178.4L724.3,168.1L720.6,169.0L711.0,136.3L709.9,135.8L707.6,134.3L704.3,134.3L702.4,134.6L701.6,133.8L701.1,132.0L698.5,129.7L696.5,128.3L694.5,127.5L692.0,127.0L691.6,126.4L691.5,124.9L690.8,123.8L690.6,121.2L690.8,120.3L693.3,119.0L696.0,118.5L696.0,117.5L694.8,116.7L695.2,115.2L694.9,114.3L692.4,113.2L691.4,112.0L690.6,110.3L690.9,109.0L688.9,107.3L687.6,107.3L685.9,106.6L685.2,105.7L682.9,104.5L682.3,104.5L679.8,105.7L679.2,105.4L678.5,103.6L678.9,101.3L678.6,98.7L678.9,97.7L677.3,94.3L677.2,92.1L677.5,90.4L678.4,89.6L678.6,87.9L677.3,87.0L676.9,85.3L676.1,84.2L673.8,83.4L672.9,83.7L672.7,85.5L671.7,87.4L670.4,87.7L669.7,87.0L666.4,86.6L665.8,86.1L663.9,83.6L662.5,81.3L661.9,79.9L661.3,77.6L659.7,76.5L657.8,76.3L655.8,77.9L647.8,81.7L647.0,82.9L647.3,84.5L646.5,85.1L644.6,85.2L643.3,84.9L641.5,85.4L641.2,86.4L638.1,87.9L636.9,89.1L635.1,87.5L633.7,85.5L632.9,85.3L631.0,86.5L629.0,86.0L628.1,85.4L627.1,83.7L624.7,82.6L624.1,81.8L619.3,80.4L614.8,80.5L611.2,81.5L609.4,81.7L608.4,80.9L607.4,81.1L605.1,82.4L604.6,82.4L603.7,79.9L604.1,78.1L599.9,74.5L599.1,74.3L596.0,75.1L592.1,76.2L591.5,76.4L589.2,77.6L588.6,78.9L587.0,80.8L581.9,78.7L579.6,76.6L577.6,74.4L575.2,74.3L513.1,88.0L503.6,89.8L433.3,106.7L413.1,111.5L363.2,123.2L343.0,128.1L338.5,129.0L337.0,129.5L245.0,152.2L204.0,162.6L158.1,174.8L143.0,178.7L112.3,186.4L103.2,188.8L80.1,194.6L20.0,209.2L30.1,249.3Z" />
  <g id="places">
    <path class="place" id="WA-001-ritzville" data-name="Ritzville" data-slug="ritzville" data-type="city" d="M543.6,361.0L548.9,365.7L549.7,365.9L553.3,367.0L554.5,367.4L554.8,368.1L555.2,367.7L555.7,367.1L556.0,367.9L556.3,369.3L556.5,370.3L558.5,370.0L559.7,369.7L561.7,369.3L562.5,369.0L564.2,368.7L564.1,367.9L563.9,367.2L563.6,366.1L563.3,364.7L563.2,363.9L563.1,363.1L563.5,362.2L563.9,361.7L564.8,362.4L565.3,361.7L565.1,360.5L564.8,359.6L564.4,357.9L564.9,357.7L568.4,359.5L568.9,359.5L570.2,359.2L570.7,359.0L568.8,357.6L568.0,357.1L566.7,356.3L565.3,355.4L564.7,355.2L564.1,355.3L563.6,354.7L563.4,353.8L563.3,353.0L562.6,353.2L562.4,352.5L563.1,352.3L564.3,352.2L565.2,353.0L565.9,354.1L566.9,353.9L567.8,354.3L569.0,354.0L570.7,353.6L574.0,352.8L572.8,347.8L562.6,350.2L562.9,351.3L561.3,351.7L561.6,353.1L561.6,353.8L561.9,355.0L560.9,356.0L556.7,356.9L554.7,357.4L553.4,357.7L552.4,357.3L551.9,358.0L552.8,358.6L553.7,359.1L554.1,360.1L554.3,360.9L554.7,362.5L551.0,358.3L550.2,358.5L553.2,362.0L554.0,362.9L554.7,363.6L555.2,364.5L555.3,365.3L554.7,365.5L553.6,363.0L550.8,363.7L549.9,363.9L549.4,362.9L548.5,358.9L547.8,359.0L547.3,359.2L545.8,359.5L545.2,359.7L544.6,359.8L543.4,360.1L543.6,361.0Z"><title>Ritzville</title></path>
    <path class="place" id="WA-001-hatton" data-name="Hatton" data-slug="hatton" data-type="city" d="M282.4,169.2L283.7,174.2L285.3,173.8L286.0,173.6L286.6,173.4L287.2,173.3L287.7,173.2L288.3,173.0L288.5,171.9L287.5,168.0L287.2,166.7L286.9,165.5L285.6,165.8L285.0,165.9L283.7,166.2L281.8,166.7L282.4,169.2Z"><title>Hatton</title></path>
    <path class="place" id="WA-001-lind" data-name="Lind" data-slug="lind" data-type="city" d="M415.8,276.3L415.8,276.3ZM414.9,284.5L415.8,288.3L417.2,287.8L418.6,287.5L420.7,286.9L421.4,286.6L422.0,286.5L422.5,286.3L423.0,286.2L423.7,286.0L423.4,283.9L423.1,283.1L423.6,283.0L424.5,282.6L427.5,282.4L428.1,282.2L427.9,281.4L427.6,280.2L428.2,279.8L429.4,279.4L430.8,278.9L431.3,278.7L432.3,278.4L431.8,277.9L431.4,278.1L430.1,278.5L429.4,278.8L428.9,279.0L428.4,279.2L427.6,279.4L426.3,280.0L424.5,280.5L424.2,279.6L424.0,278.6L423.8,277.7L423.6,277.0L423.4,276.0L421.2,276.0L421.0,275.3L418.7,275.9L416.9,276.3L415.9,276.6L416.1,277.4L415.3,277.6L414.6,277.8L414.9,279.0L415.1,279.9L415.3,280.8L414.9,281.2L415.1,282.4L415.4,283.4L414.8,283.6L414.9,284.5ZM407.1,285.0L407.7,284.9L408.6,284.7L410.0,284.3L411.3,284.0L412.2,283.8L411.7,283.1L411.0,283.0L409.1,282.6L408.5,282.4L407.6,282.9L406.8,283.7L407.1,284.9L407.1,285.0Z"><title>Lind</title></path>
    <path class="place" id="WA-001-othello" data-name="Othello" data-slug="othello" data-type="city" d="M148.2,242.7L148.6,243.9L148.9,245.1L149.1,246.1L149.3,246.9L151.8,246.2L151.0,242.9L150.6,241.8L149.8,242.0L149.0,242.2L148.3,242.4L148.2,242.7ZM141.6,255.2L141.8,254.6L141.6,255.2ZM118.6,239.0L119.8,240.4L120.6,240.8L122.9,241.8L123.6,242.1L123.9,242.8L125.1,247.4L124.6,247.5L125.1,248.1L125.6,247.9L126.1,249.3L126.2,250.1L126.7,250.0L127.1,251.0L127.4,252.3L128.6,255.3L129.1,256.6L129.6,257.7L131.4,261.0L132.0,261.0L132.9,260.8L132.4,259.3L137.4,258.0L136.9,256.0L137.6,255.7L138.8,255.4L139.7,255.2L140.6,254.9L140.0,252.5L139.7,251.4L139.5,250.3L139.2,249.3L138.9,248.1L138.6,247.0L138.4,246.3L138.3,245.6L138.1,244.8L138.6,244.7L139.3,244.5L139.9,244.4L140.8,244.2L141.7,244.0L142.6,243.7L143.9,243.4L144.8,243.2L145.6,243.0L146.8,242.7L147.4,242.6L147.9,242.5L147.9,241.6L143.8,242.3L142.9,242.5L141.9,239.1L141.4,237.5L141.2,236.7L138.5,236.6L138.2,235.3L137.8,234.2L136.5,234.5L135.7,234.7L135.2,234.1L134.9,232.7L129.5,233.5L128.9,231.0L126.2,231.6L125.7,231.7L124.6,227.5L122.9,227.9L121.5,228.3L120.1,228.7L120.4,229.5L120.8,231.5L118.2,232.2L118.7,232.7L118.8,233.4L119.5,233.7L120.4,234.0L120.9,234.3L121.9,235.0L122.5,235.7L122.9,236.3L123.4,236.9L123.8,237.6L123.0,237.8L122.6,237.9L121.5,238.1L120.9,238.3L120.1,238.5L120.3,239.8L119.6,239.1L119.1,238.7L118.6,238.8L118.6,239.0ZM141.7,238.5L140.9,239.8L140.6,238.8L141.1,238.7L141.6,238.5L141.7,238.5ZM116.0,247.9L116.5,249.6L117.4,249.9L117.8,249.5L117.5,248.6L117.3,247.7L116.8,247.4L115.9,247.6L116.0,247.9Z"><title>Othello</title></path>
    <path class="place" id="WA-001-washtucna" data-name="Washtucna" data-slug="washtucna" data-type="city" d="M524.4,93.2L524.8,94.0L525.0,94.8L525.4,95.4L526.7,100.1L526.9,101.0L528.3,100.8L529.4,100.5L530.7,100.2L531.9,100.0L532.6,100.0L535.1,99.4L535.9,99.2L537.2,98.9L536.7,97.0L535.8,97.3L534.3,97.9L534.0,97.1L533.6,95.5L533.2,94.0L532.6,93.9L532.1,94.2L531.6,94.6L531.4,93.9L530.6,93.7L529.9,91.2L527.8,91.6L526.7,91.9L526.4,90.9L525.6,91.1L524.5,91.3L524.3,92.0L524.2,92.7L524.4,93.2Z"><title>Washtucna</title></path>
  </g>
</svg>